<?xml version="1.0" encoding="UTF-8" standalone="no"?>
<svg width="260px" height="260px" viewBox="0 0 260 260" version="1.1" xmlns="http://www.w3.org/2000/svg" xmlns:xlink="http://www.w3.org/1999/xlink" xmlns:sketch="http://www.bohemiancoding.com/sketch/ns">
    <!-- Generator: Sketch 3.3.3 (12072) - http://www.bohemiancoding.com/sketch -->
    <title>favicon-blue-260</title>
    <desc>Created with Sketch.</desc>
    <defs></defs>
    <g id="Page-1" stroke="none" stroke-width="1" fill="none" fill-rule="evenodd" sketch:type="MSPage">
        <g id="favicon-blue-260" sketch:type="MSArtboardGroup">
            <g id="Group" sketch:type="MSLayerGroup">
                <rect id="Rectangle-4" fill="#113D5E" sketch:type="MSShapeGroup" x="0" y="0" width="262" height="262" rx="2"></rect>
                <path d="M106.4375,204.6875 L139.1875,204.6875 L237.4375,106.4375 L204.6875,73.6875 L106.4375,171.9375 L106.4375,204.6875 Z" id="Line" fill="#FFFFFF" sketch:type="MSShapeGroup"></path>
                <path d="M40.9375,65.5 L155.5625,65.5 L163.75,65.5 L163.75,49.125 L155.5625,49.125 L40.9375,49.125 L32.75,49.125 L32.75,65.5 L40.9375,65.5 L40.9375,65.5 Z" id="Shape" fill="#FFFFFF" sketch:type="MSShapeGroup"></path>
                <path d="M40.9375,114.625 L106.4375,114.625 L114.625,114.625 L114.625,98.25 L106.4375,98.25 L40.9375,98.25 L32.75,98.25 L32.75,114.625 L40.9375,114.625 L40.9375,114.625 Z" id="Shape" fill="#FFFFFF" sketch:type="MSShapeGroup"></path>
                <path d="M40.9375,163.75 L73.6875,163.75 L81.875,163.75 L81.875,147.375 L73.6875,147.375 L40.9375,147.375 L32.75,147.375 L32.75,163.75 L40.9375,163.75 L40.9375,163.75 Z" id="Shape" fill="#FFFFFF" sketch:type="MSShapeGroup"></path>
                <path d="M57.3125,196.5 L40.9375,196.5 L32.75,196.5 L32.75,212.875 L40.9375,212.875 L57.3125,212.875 L65.5,212.875 L65.5,196.5 L57.3125,196.5 L57.3125,196.5 Z" id="Shape" fill="#FFFFFF" sketch:type="MSShapeGroup"></path>
            </g>
        </g>
    </g>
</svg>