<svg width="20" height="15" viewBox="0 0 20 15" xmlns="http://www.w3.org/2000/svg">
  <path d="M17.434 5.657c.028-.218.066-.432.066-.657 0-2.76-2.238-5-5-5-1.633 0-3.07.795-3.982 2.007-.328-.08-.666-.132-1.018-.132-2.417 0-4.375 1.958-4.375 4.375 0 .068.017.13.02.198C1.332 6.98 0 8.638 0 10.625 0 13.042 1.958 15 4.375 15H15c2.762 0 5-2.238 5-5 0-1.873-1.04-3.486-2.566-4.343zm-3.9 4.86l-1.766 1.768L10 10.518l-1.768 1.767-1.768-1.767L8.232 8.75 6.464 6.982l1.768-1.767L10 6.982l1.768-1.767 1.767 1.767-1.767 1.768 1.767 1.768z" fill-rule="evenodd"/>
</svg>
