<svg width="20" height="15" viewBox="0 0 20 15" xmlns="http://www.w3.org/2000/svg"><title>cloud-failed</title><g fill="none" fill-rule="evenodd"><path d="M17.434 5.657c.028-.218.066-.432.066-.657 0-2.76-2.238-5-5-5-1.633 0-3.07.795-3.982 2.007-.328-.08-.666-.132-1.018-.132-2.417 0-4.375 1.958-4.375 4.375 0 .068.017.13.02.198C1.332 6.98 0 8.638 0 10.625 0 13.042 1.958 15 4.375 15H15c2.762 0 5-2.238 5-5 0-1.873-1.04-3.486-2.566-4.343z" fill="#000"/><path d="M9.32 8.586L7.72 6.983l-.632-.633L8.35 5.086l.633.632 1.603 1.603L12.19 5.72l.63-.632 1.266 1.264-.632.633-1.604 1.603 1.604 1.603.632.63-1.265 1.266-.63-.632-1.604-1.604-1.603 1.604-.633.632-1.264-1.265.632-.63L9.32 8.585z" fill="#FFF"/></g></svg>