<?xml version="1.0" encoding="UTF-8" standalone="no"?>
<svg width="20px" height="15px" viewBox="0 0 20 15" version="1.1" xmlns="http://www.w3.org/2000/svg" xmlns:xlink="http://www.w3.org/1999/xlink" xmlns:sketch="http://www.bohemiancoding.com/sketch/ns">
    <!-- Generator: Sketch 3.3.3 (12072) - http://www.bohemiancoding.com/sketch -->
    <title>cloud-working</title>
    <desc>Created with Sketch.</desc>
    <defs></defs>
    <g id="Page-1" stroke="none" stroke-width="1" fill="none" fill-rule="evenodd" sketch:type="MSPage">
        <g id="cloud-working" sketch:type="MSLayerGroup" fill="#000000">
            <path d="M17.4341016,5.65675781 C17.4621484,5.43945312 17.5,5.22460938 17.5,5 C17.5,2.23875 15.2624609,0 12.5,0 C10.8666797,0 9.42992187,0.7946875 8.51804687,2.00683594 C8.1896875,1.9275 7.8515625,1.875 7.5,1.875 C5.08300781,1.875 3.125,3.83300781 3.125,6.25 C3.125,6.31835938 3.14210937,6.37941406 3.14453125,6.44777344 C1.33179687,6.98121094 0,8.63890625 0,10.625 C0,13.0419922 1.95800781,15 4.375,15 L15,15 C17.7624609,15 20,12.7624609 20,10 C20,8.12746094 18.95875,6.51367188 17.4341016,5.65675781 L17.4341016,5.65675781 Z M6.25,11.25 C5.5596875,11.25 5,10.6908984 5,10 C5,9.30910156 5.5596875,8.75 6.25,8.75 C6.9403125,8.75 7.5,9.30910156 7.5,10 C7.5,10.6908984 6.9403125,11.25 6.25,11.25 L6.25,11.25 Z M10,11.25 C9.3096875,11.25 8.75,10.6908984 8.75,10 C8.75,9.30910156 9.3096875,8.75 10,8.75 C10.6909375,8.75 11.25,9.30910156 11.25,10 C11.25,10.6908984 10.6909375,11.25 10,11.25 L10,11.25 Z M13.75,11.25 C13.0590625,11.25 12.5,10.6908984 12.5,10 C12.5,9.30910156 13.0591016,8.75 13.75,8.75 C14.4408984,8.75 15,9.30910156 15,10 C15,10.6908984 14.4409375,11.25 13.75,11.25 L13.75,11.25 Z" id="Shape" sketch:type="MSShapeGroup"></path>
        </g>
    </g>
</svg>