<svg width="20" height="15" viewBox="0 0 20 15" xmlns="http://www.w3.org/2000/svg"><g fill="none" fill-rule="evenodd"><path d="M17.5 5c0-2.76-2.238-5-5-5-1.633 0-3.07.795-3.982 2.007-.328-.08-.666-.132-1.018-.132-2.417 0-4.375 1.958-4.375 4.375 0 .068.017.13.02.198C1.332 6.98 0 8.638 0 10.625 0 13.042 1.958 15 4.375 15H15c2.762 0 5-2.238 5-5 0-1.873-1.04-3.486-2.566-4.343.028-.218.066-.432.066-.657z" fill="#000"/><path d="M9.793 11.5v.5h.5l.207.207.207-.207H11v-.293l2.854-2.853.353-.354-.707-.707-.354.353L11 10.293V0H9.793v10.087l-1.94-1.94-.353-.354-.707.707.353.354L9.793 11.5z" fill="#FFF"/></g></svg>