<svg width="20px" height="15px" viewBox="0 0 20 15" version="1.1" xmlns="http://www.w3.org/2000/svg" xmlns:xlink="http://www.w3.org/1999/xlink">
        <g id="cloud-failed" fill="#000000">
            <path d="M9.3212291,8.58578644 L7.7180651,6.98262244 L7.08578644,6.35034377 L8.35034377,5.08578644 L8.98262244,5.7180651 L10.5857864,7.3212291 L12.1889504,5.7180651 L12.8212291,5.08578644 L14.0857864,6.35034377 L13.4535078,6.98262244 L11.8503438,8.58578644 L13.4535078,10.1889504 L14.0857864,10.8212291 L12.8212291,12.0857864 L12.1889504,11.4535078 L10.5857864,9.85034377 L8.98262244,11.4535078 L8.35034377,12.0857864 L7.08578644,10.8212291 L7.7180651,10.1889504 L9.3212291,8.58578644 Z M17.4341016,5.65675781 C17.4621484,5.43945312 17.5,5.22460938 17.5,5 C17.5,2.23875 15.2624609,0 12.5,0 C10.8666797,0 9.42992187,0.7946875 8.51804687,2.00683594 C8.1896875,1.9275 7.8515625,1.875 7.5,1.875 C5.08300781,1.875 3.125,3.83300781 3.125,6.25 C3.125,6.31835938 3.14210937,6.37941406 3.14453125,6.44777344 C1.33179687,6.98121094 0,8.63890625 0,10.625 C0,13.0419922 1.95800781,15 4.375,15 L15,15 C17.7624609,15 20,12.7624609 20,10 C20,8.12746094 18.95875,6.51367188 17.4341016,5.65675781 Z"></path>
        </g>
</svg>