<svg width="20" height="15" viewBox="0 0 20 15" xmlns="http://www.w3.org/2000/svg"><title>cloud-working</title><path d="M17.434 5.657c.028-.218.066-.432.066-.657 0-2.76-2.238-5-5-5-1.633 0-3.07.795-3.982 2.007-.328-.08-.666-.132-1.018-.132-2.417 0-4.375 1.958-4.375 4.375 0 .068.017.13.02.198C1.332 6.98 0 8.638 0 10.625 0 13.042 1.958 15 4.375 15H15c2.762 0 5-2.238 5-5 0-1.873-1.04-3.486-2.566-4.343zM6.25 11.25C5.56 11.25 5 10.69 5 10s.56-1.25 1.25-1.25S7.5 9.31 7.5 10s-.56 1.25-1.25 1.25zm3.75 0c-.69 0-1.25-.56-1.25-1.25S9.31 8.75 10 8.75s1.25.56 1.25 1.25-.56 1.25-1.25 1.25zm3.75 0c-.69 0-1.25-.56-1.25-1.25s.56-1.25 1.25-1.25S15 9.31 15 10s-.56 1.25-1.25 1.25z" fill="#000" fill-rule="evenodd"/></svg>