<?xml version="1.0" encoding="UTF-8" standalone="no"?>
<svg width="20px" height="15px" viewBox="0 0 20 15" version="1.1" xmlns="http://www.w3.org/2000/svg" xmlns:xlink="http://www.w3.org/1999/xlink" xmlns:sketch="http://www.bohemiancoding.com/sketch/ns">
    <!-- Generator: Sketch 3.3.3 (12072) - http://www.bohemiancoding.com/sketch -->
    <title>cloud-failed</title>
    <desc>Created with Sketch.</desc>
    <defs></defs>
    <g id="Page-1" stroke="none" stroke-width="1" fill="none" fill-rule="evenodd" sketch:type="MSPage">
        <g id="cloud-failed" sketch:type="MSLayerGroup" fill="#000000">
            <path d="M17.4341016,5.65675781 C17.4621484,5.43945312 17.5,5.22460938 17.5,5 C17.5,2.23875 15.2624609,0 12.5,0 C10.8666797,0 9.42992187,0.7946875 8.51804687,2.00683594 C8.1896875,1.9275 7.8515625,1.875 7.5,1.875 C5.08300781,1.875 3.125,3.83300781 3.125,6.25 C3.125,6.31835938 3.14210937,6.37941406 3.14453125,6.44777344 C1.33179687,6.98121094 0,8.63890625 0,10.625 C0,13.0419922 1.95800781,15 4.375,15 L15,15 C17.7624609,15 20,12.7624609 20,10 C20,8.12746094 18.95875,6.51367188 17.4341016,5.65675781 L17.4341016,5.65675781 Z M13.5351562,10.5175781 L11.7675781,12.2851562 L10,10.5175781 L8.23242188,12.2851562 L6.46421875,10.5175781 L8.23242188,8.75 L6.46421875,6.98242188 L8.23242188,5.21484375 L10,6.98242188 L11.7675781,5.21484375 L13.5351562,6.98242188 L11.7675781,8.75 L13.5351562,10.5175781 L13.5351562,10.5175781 Z" id="Shape" sketch:type="MSShapeGroup"></path>
        </g>
    </g>
</svg>