<?xml version="1.0" encoding="UTF-8" standalone="no"?>
<svg width="20px" height="15px" viewBox="0 0 20 15" version="1.1" xmlns="http://www.w3.org/2000/svg" xmlns:xlink="http://www.w3.org/1999/xlink" xmlns:sketch="http://www.bohemiancoding.com/sketch/ns">
    <!-- Generator: Sketch 3.3.3 (12072) - http://www.bohemiancoding.com/sketch -->
    <title>cloud-refreshed</title>
    <desc>Created with Sketch.</desc>
    <defs></defs>
    <g id="Page-1" stroke="none" stroke-width="1" fill="none" fill-rule="evenodd" sketch:type="MSPage">
        <g id="cloud-refreshed" sketch:type="MSLayerGroup" fill="#000000">
            <path d="M11,0.232774197 C11.4725618,0.0817393457 11.9761719,0 12.5,0 C15.2624609,0 17.5,2.23875 17.5,5 C17.5,5.22460938 17.4621484,5.43945312 17.4341016,5.65675781 C18.95875,6.51367188 20,8.12746094 20,10 C20,12.7624609 17.7624609,15 15,15 L4.375,15 C1.95800781,15 0,13.0419922 0,10.625 C0,8.63890625 1.33179687,6.98121094 3.14453125,6.44777344 C3.14210937,6.37941406 3.125,6.31835938 3.125,6.25 C3.125,3.83300781 5.08300781,1.875 7.5,1.875 C7.8515625,1.875 8.1896875,1.9275 8.51804687,2.00683594 C8.87078813,1.53793969 9.30207181,1.13151146 9.79289322,0.809386855 L9.79289322,0.666666667 L9.79289322,0 L11,0 L11,0.232774197 Z M11,0.232774197 C10.5690754,0.370501435 10.163969,0.565850948 9.79289322,0.809386855 L9.79289322,10.0857864 L7.85355339,8.14644661 L7.5,7.79289322 L6.79289322,8.5 L7.14644661,8.85355339 L9.79289322,11.5 L9.79289322,11.5 L9.79289322,12 L10.2928932,12 L10.2928932,12 L10.5,12.2071068 L10.7071068,12 L11,12 L11,11.7071068 L13.8535534,8.85355339 L14.2071068,8.5 L13.5,7.79289322 L13.1464466,8.14644661 L11,10.2928932 L11,0.666666667 L11,0.232774197 Z" id="Shape" sketch:type="MSShapeGroup"></path>
        </g>
    </g>
</svg>