<?xml version="1.0" encoding="UTF-8" standalone="no"?>
<svg width="17px" height="16px" viewBox="0 0 17 16" version="1.1" xmlns="http://www.w3.org/2000/svg" xmlns:xlink="http://www.w3.org/1999/xlink" xmlns:sketch="http://www.bohemiancoding.com/sketch/ns">
    <!-- Generator: Sketch 3.3.3 (12072) - http://www.bohemiancoding.com/sketch -->
    <title>local-working</title>
    <desc>Created with Sketch.</desc>
    <defs></defs>
    <g id="Page-1" stroke="none" stroke-width="1" fill="none" fill-rule="evenodd" sketch:type="MSPage">
        <g id="local-working" sketch:type="MSLayerGroup" fill="#000000">
            <path d="M0,3.00947762 C0,1.34738902 1.33396149,0 3.00012623,0 L13.9998738,0 C15.6567977,0 17,1.33663106 17,3.00947762 L17,12.9905224 C17,14.652611 15.6660385,16 13.9998738,16 L3.00012623,16 C1.34320226,16 0,14.6633689 0,12.9905224 L0,3.00947762 L0,3.00947762 Z M3,0 L14,0 L14,5 L3,5 L3,0 L3,0 Z M4.25,11.5 C3.5596875,11.5 3,10.9408984 3,10.25 C3,9.55910156 3.5596875,9 4.25,9 C4.9403125,9 5.5,9.55910156 5.5,10.25 C5.5,10.9408984 4.9403125,11.5 4.25,11.5 L4.25,11.5 Z M12.25,11.5 C11.5596875,11.5 11,10.9408984 11,10.25 C11,9.55910156 11.5596875,9 12.25,9 C12.9409375,9 13.5,9.55910156 13.5,10.25 C13.5,10.9408984 12.9409375,11.5 12.25,11.5 L12.25,11.5 Z M8.25,11.5 C7.5590625,11.5 7,10.9408984 7,10.25 C7,9.55910156 7.55910156,9 8.25,9 C8.94089844,9 9.5,9.55910156 9.5,10.25 C9.5,10.9408984 8.9409375,11.5 8.25,11.5 L8.25,11.5 Z" id="Rectangle-1" sketch:type="MSShapeGroup"></path>
            <rect id="Rectangle-2-Copy" sketch:type="MSShapeGroup" x="6" y="2" width="5" height="1"></rect>
        </g>
    </g>
</svg>