<?xml version="1.0" encoding="UTF-8" standalone="no"?>
<svg width="17px" height="16px" viewBox="0 0 17 16" version="1.1" xmlns="http://www.w3.org/2000/svg" xmlns:xlink="http://www.w3.org/1999/xlink" xmlns:sketch="http://www.bohemiancoding.com/sketch/ns">
    <!-- Generator: Sketch 3.3.3 (12072) - http://www.bohemiancoding.com/sketch -->
    <title>saved-locally</title>
    <desc>Created with Sketch.</desc>
    <defs></defs>
    <g id="Page-1" stroke="none" stroke-width="1" fill="none" fill-rule="evenodd" sketch:type="MSPage">
        <g id="saved-locally" sketch:type="MSLayerGroup" fill="#000000">
            <path d="M0,3.00947762 C0,1.34738902 1.33396149,0 3.00012623,0 L13.9998738,0 C15.6567977,0 17,1.33663106 17,3.00947762 L17,12.9905224 C17,14.652611 15.6660385,16 13.9998738,16 L3.00012623,16 C1.34320226,16 0,14.6633689 0,12.9905224 L0,3.00947762 L0,3.00947762 Z M7.41421356,10 L10.7071068,6.70710678 L11.4142136,6 L12.8284271,7.41421356 L12.1213203,8.12132034 L8.12132034,12.1213203 L7.41421356,12.8284271 L7.06066017,12.4748737 L6.70710678,12.1213203 L4.70710678,10.1213203 L4,9.41421356 L5.41421356,8 L6.12132034,8.70710678 L7.41421356,10 Z M3,0 L14,0 L14,5 L3,5 L3,0 Z" id="Rectangle-1" sketch:type="MSShapeGroup"></path>
            <rect id="Rectangle-2-Copy" sketch:type="MSShapeGroup" x="6" y="2" width="5" height="1"></rect>
        </g>
    </g>
</svg>